<?xml version="1.0" encoding="utf-8"?>
<!-- Generator: Adobe Illustrator 27.5.0, SVG Export Plug-In . SVG Version: 6.00 Build 0)  -->
<svg version="1.1" xmlns="http://www.w3.org/2000/svg" xmlns:xlink="http://www.w3.org/1999/xlink" x="0px" y="0px"
	 viewBox="0 0 500 500.001" style="enable-background:new 0 0 500 500.001;" xml:space="preserve">
<g id="BACKGROUND">
	<g>
		<rect style="fill:#FCFCFC;" width="499.999" height="500"/>
		<path style="fill:#DFE7F4;" d="M159.73,79.179c-50.288,27.014-11.86,90.268-87.874,133.096
			c-50.529,28.469-82.694,123.872,5.597,200.962h346.772c0,0,57.301-15.718,35.58-82.361c-28.99-88.951,46.15-107.269,5.93-190.42
			c-30.967-64.022-100.811-64.022-132.438-19.108c-23.363,33.179-39.533,56.665-52.711,23.72
			C267.409,112.124,221.722,45.877,159.73,79.179z"/>
		<path style="fill:#5142B7;" d="M473.077,424.665c0,5.522-4.478,10-10,10H36.923c-5.523,0-10-4.478-10-10v-1.428
			c0-5.522,4.477-10,10-10h426.154c5.522,0,10,4.478,10,10V424.665z"/>
	</g>
</g>
<g id="OBJECTS">
	<g>
		<g>
			<path style="fill:#C3CBFA;" d="M438.474,225.169c0,3.809-3.088,6.897-6.897,6.897h-99.414c-3.81,0-6.898-3.089-6.898-6.897
				v-91.65c0-3.81,3.088-6.897,6.898-6.897h99.414c3.809,0,6.897,3.088,6.897,6.897V225.169z"/>
			<path style="fill:#EBF3FF;" d="M434.435,221.897c0,3.537-2.869,6.405-6.406,6.405H335.71c-3.537,0-6.404-2.869-6.404-6.405
				V136.79c0-3.538,2.867-6.405,6.404-6.405h92.318c3.537,0,6.406,2.868,6.406,6.405V221.897z"/>
			<g>
				<path style="fill:#C3CBFA;" d="M436.786,132.92c0,1.161-0.94,2.101-2.102,2.101H328.353c-1.16,0-2.1-0.94-2.1-2.101l0,0
					c0-1.161,0.939-2.102,2.1-2.102h106.332C435.847,130.818,436.786,131.759,436.786,132.92L436.786,132.92z"/>
				<path style="fill:#C3CBFA;" d="M436.786,138.047c0,1.161-0.94,2.102-2.102,2.102H328.353c-1.16,0-2.1-0.941-2.1-2.102l0,0
					c0-1.161,0.939-2.102,2.1-2.102h106.332C435.847,135.945,436.786,136.886,436.786,138.047L436.786,138.047z"/>
				<path style="fill:#C3CBFA;" d="M436.786,143.174c0,1.161-0.94,2.102-2.102,2.102H328.353c-1.16,0-2.1-0.941-2.1-2.102l0,0
					c0-1.161,0.939-2.102,2.1-2.102h106.332C435.847,141.072,436.786,142.013,436.786,143.174L436.786,143.174z"/>
				<path style="fill:#C3CBFA;" d="M436.786,148.301c0,1.16-0.94,2.101-2.102,2.101H328.353c-1.16,0-2.1-0.941-2.1-2.101l0,0
					c0-1.161,0.939-2.102,2.1-2.102h106.332C435.847,146.199,436.786,147.14,436.786,148.301L436.786,148.301z"/>
				<path style="fill:#C3CBFA;" d="M436.786,153.428c0,1.161-0.94,2.102-2.102,2.102H328.353c-1.16,0-2.1-0.941-2.1-2.102l0,0
					c0-1.161,0.939-2.102,2.1-2.102h106.332C435.847,151.327,436.786,152.268,436.786,153.428L436.786,153.428z"/>
				<path style="fill:#C3CBFA;" d="M436.786,158.555c0,1.16-0.94,2.102-2.102,2.102H328.353c-1.16,0-2.1-0.941-2.1-2.102l0,0
					c0-1.161,0.939-2.102,2.1-2.102h106.332C435.847,156.453,436.786,157.395,436.786,158.555L436.786,158.555z"/>
			</g>
		</g>
		<polygon style="fill:#DFE7F4;" points="248.775,217.892 142.261,214.245 142.261,142.218 246.027,140.795 		"/>
		<polygon style="fill:#DFE7F4;" points="216.708,136.499 129.626,134.777 129.626,82.146 214.415,80.364 		"/>
		<g>
			<g>
				<g>
					<path style="fill:#F9A88C;" d="M287.729,301.708c0,0,2.592,43.005,1.051,49.433c-1.539,6.428-10.168,45.453-11.482,57.89
						h-6.115c0,0-5.285-31.325,5.027-56.813c1.373-3.39-11.504-51.46-11.504-51.46L287.729,301.708z"/>
					<path style="fill:#E5AC5A;" d="M290.212,411.27c0,0-6.969-2.17-8.108-3.461c-1.139-1.291-0.201-3.403-2.277-3.755
						c-2.076-0.352-2.814,2.426-2.346,4.175c0,0-3.281,1.047-7.303,0c0,0-1.678,2.924-0.338,5.212l20.371,0.352V411.27z"/>
					<path style="fill:#FCFCFC;" d="M285.655,412.854c0,0,0.402-1.816,2.078-2.639c0,0,4.555,0.936,4.822,3.167
						c0,0,0.469,0.938-0.469,0.938s-20.887,0-22.168,0c-1.281,0-1.147-1.467,0.527-1.467
						C272.122,412.854,285.655,412.854,285.655,412.854z"/>
					<path style="fill:#EF8E7B;" d="M264.706,300.758l23.023,0.95c0,0,2.592,43.005,1.051,49.433
						c-0.449,1.875-1.502,6.533-2.801,12.486c-4.572,2.747-9.67,5.486-14.582,6.18c0.98-5.878,2.502-11.879,4.813-17.589
						C277.583,348.828,264.706,300.758,264.706,300.758z"/>
				</g>
				<g>
					<path style="fill:#F9A88C;" d="M275.896,316.335c0,0-1.889,28.378-3.428,34.806c-1.541,6.428-10.168,45.453-11.484,57.89
						h-6.113c0,0-5.285-31.325,5.027-56.813c1.371-3.39-6.382-44.401-6.382-44.401L275.896,316.335z"/>
					<path style="fill:#FFCD74;" d="M274.046,411.27c0,0-6.969-2.17-8.107-3.461c-1.139-1.291-0.201-3.403-2.277-3.755
						c-2.076-0.352-2.815,2.426-2.346,4.175c0,0-3.283,1.047-7.303,0c0,0-1.678,2.924-0.338,5.212l20.371,0.352V411.27z"/>
					<path style="fill:#FCFCFC;" d="M269.489,412.854c0,0,0.402-1.816,2.078-2.639c0,0,4.555,0.936,4.822,3.167
						c0,0,0.469,0.938-0.469,0.938s-20.887,0-22.168,0c-1.28,0-1.146-1.467,0.527-1.467
						C255.956,412.854,269.489,412.854,269.489,412.854z"/>
					<path style="fill:#EF8E7B;" d="M255.567,367.118c0.979-5.008,2.371-10.06,4.33-14.9c1.371-3.39-6.382-44.401-6.382-44.401
						l22.38,8.519c0,0-1.889,28.378-3.428,34.806c-0.469,1.953-1.592,6.925-2.965,13.235c-3.17,0.569-6.342,1.976-9.512,2.24
						C258.585,366.851,257.087,366.995,255.567,367.118z"/>
				</g>
				<g>
					<path style="fill:#5D53D6;" d="M287.247,297.943c0,0,16.607,45.817,13.484,54.731c-3.123,8.913-11.828,1.093-16.047,4.432
						c-4.219,3.339-15.676,6.707-19.131,0.017c-3.457-6.69-6.113,3.551-15.255,2.408c-9.142-1.143-2.743-44.567,9.599-60.794
						L287.247,297.943z"/>
					<path style="opacity:0.5;fill:#5D53D6;" d="M287.247,297.943c0,0,1.939,5.353,4.369,12.752c-3.895,1.311-7.49,4.066-8.99,7.209
						c-2.438,5.12,0.244,11.705-3.291,16.337c-3.17,4.024-7.072-2.072-9.389-4.022c-3.902-3.17-8.535-0.488-11.949,2.072
						c-3.537,2.886-7.218,6.97-11.689,8.42c1.311-14.135,6.458-32.597,13.59-41.974L287.247,297.943z"/>
				</g>
			</g>
			<g>
				<path style="fill:#F9A88C;" d="M283.362,240.376c3.531,2.037,18.523,51.05,39.225,62.421l-10.203,0.509
					c0,0-25.139-19.671-30.461-39.228C276.599,244.521,278.739,237.709,283.362,240.376z"/>
				<g>
					<path style="fill:#F25860;" d="M273.017,237.203c0,0-11.951,7.161-17.133,23.462c-5.184,16.299-1.439,46.695-1.439,46.695
						s19.994,6.482,36.273-5.357c0,0-2.512-37.537-3.272-48.375C286.688,242.79,284.196,236.985,273.017,237.203z"/>
					<path style="opacity:0.5;fill:#C64A50;" d="M255.884,260.665c3.863-12.158,11.492-19.229,15.121-22.039
						c1.869,1.037,3.822,2.346,3.981,4.552c0.387,3.098-2.711,6.196-4.648,8.133c-4.453,5.227-9.682,10.069-13.941,15.491
						c-9.294,11.812,10.65,25.172,17.814,32.918c2.346,2.457,4.701,4.843,7.121,7.172c-1.57,0.545-3.137,0.972-4.676,1.299
						c-7.854-4.705-15.822-9.372-23.302-14.604C252.878,283.421,252.973,269.819,255.884,260.665z"/>
				</g>
				<path style="fill:#F9A88C;" d="M271.548,240.376c4.25,4.79-24.818,24.375-24.818,33.572c0,1.33,17.596,21.595,20.406,22.748
					c0,0,8.133-4.683,10.352-3.465c2.217,1.218,6.211,5.303,5.619,5.552c-0.592,0.249-5.916-2.797-7.838-2.087
					c-1.922,0.71-4.435,4.85-8.725,2.928c0,0-30.017-17.986-30.904-25.676C234.752,266.259,262.728,230.436,271.548,240.376z"/>
			</g>
			<g>
				<path style="fill:#F9A88C;" d="M303.735,230.049c-4.631,7.402-13.654,10.153-20.152,6.144c-6.5-4.011-8.014-13.262-3.383-20.665
					c4.631-7.404,13.654-10.153,20.152-6.143C306.853,213.395,308.366,222.646,303.735,230.049z"/>
				<path style="fill:#F9A88C;" d="M288.716,229.55c0,0-6.59,12.682-7.123,12.778c-0.535,0.097-6.133-0.073-7.34-4.683l6.295-10.495
					L288.716,229.55z"/>
				<g>
					<path style="fill:#1C1855;" d="M307.521,223.87c0,0-9.473-2.617-16.52-7.592c0,0-10.945,21.77-15.281,22.452
						c-4.338,0.682-16.512-13.722-13.603-20.878c2.908-7.156,17.789-30.224,35.182-15.773
						C305.446,202.651,313.923,213.057,307.521,223.87z"/>
					<g>
						<path style="fill:#5D53D6;" d="M299.903,204.389c2.656,1.222,4.937,2.758,6.414,5.337c1.713,2.998,1.682,7.036,0.633,10.222
							c-0.102,0.305-0.58,0.163-0.479-0.144c1.065-3.233,0.891-6.763-0.596-9.841c-1.221-2.529-3.793-4.025-6.238-5.15
							C299.345,204.678,299.614,204.255,299.903,204.389z"/>
						<path style="fill:#5D53D6;" d="M296.9,204.519c-0.25-0.196,0.012-0.622,0.266-0.424c5.189,4.046,6.918,9.969,4.588,16.14
							c-0.113,0.3-0.594,0.158-0.48-0.144C303.519,214.146,301.911,208.426,296.9,204.519z"/>
						<path style="fill:#5D53D6;" d="M294.962,205.085c2.053,3.468,3.006,8.306,0.242,11.646c-0.205,0.248-0.545-0.121-0.342-0.365
							c2.611-3.159,1.576-7.808-0.342-11.044C294.357,205.044,294.798,204.808,294.962,205.085z"/>
						<path style="fill:#5D53D6;" d="M287.853,217.28c-4.654,5.753-8.764,11.898-12.885,18.037c-0.18,0.267-0.604,0.003-0.424-0.266
							c4.121-6.139,8.23-12.284,12.885-18.037C287.63,216.767,288.056,217.029,287.853,217.28z"/>
						<path style="fill:#5D53D6;" d="M291.155,208.644c-9.438,5.291-15.82,14.117-20.941,23.421
							c-0.154,0.282-0.578,0.016-0.424-0.266c5.164-9.381,11.619-18.264,21.129-23.595
							C291.2,208.045,291.437,208.486,291.155,208.644z"/>
						<path style="fill:#5D53D6;" d="M291.081,203.439c0.309-0.094,0.424,0.394,0.115,0.486
							c-11.289,3.41-18.102,13.66-24.277,22.995c-0.178,0.269-0.602,0.004-0.424-0.265
							C272.747,217.202,279.655,206.89,291.081,203.439z"/>
						<path style="fill:#5D53D6;" d="M292.28,200.232c0.322,0.021,0.311,0.522-0.012,0.5c-12.82-0.856-25.646,8.135-29.053,20.676
							c-0.084,0.312-0.562,0.167-0.478-0.144C266.2,208.517,279.241,199.36,292.28,200.232z"/>
					</g>
				</g>
				<g>
					<path style="fill:#F9A88C;" d="M287.751,226.013c-0.182,2.322-2.213,4.056-4.535,3.873c-2.322-0.183-4.057-2.213-3.873-4.535
						c0.184-2.322,2.213-4.056,4.535-3.874C286.198,221.66,287.935,223.691,287.751,226.013z"/>
					<path style="fill:#D17461;" d="M285.249,224.798c-0.978-1.278-2.777-0.714-3.834,0.114c-0.252,0.197,0.02,0.618,0.271,0.418
						c0.881-0.69,2.145-1.189,3.086-0.322c0.58,0.536,0.621,1.209,0.393,1.833c-0.676-0.614-1.631-0.885-2.324-0.105
						c-0.756,0.852-0.084,1.816,0.875,1.962c0.047,0.138,0.209,0.249,0.373,0.151C285.503,228.027,286.36,226.246,285.249,224.798z
						 M284.046,228.269c-0.029-0.02-0.064-0.035-0.109-0.038c-0.826-0.062-1.279-0.79-0.502-1.373
						c0.494-0.369,1.127,0.073,1.502,0.454C284.704,227.693,284.386,228.023,284.046,228.269z"/>
				</g>
			</g>
		</g>
		<g>
			<g>
				<path style="fill:#FCFCFC;" d="M236.875,303.306c-0.002,0-0.003,0-0.005,0l-21.028-0.064c-1.012-0.004-1.83-0.825-1.827-1.838
					c0.003-1.009,0.823-1.826,1.832-1.826c0.002,0,0.004,0,0.005,0l18.231,0.057l-17.551-40.573h-4.7
					c-1.012,0-1.832-0.82-1.832-1.832c0-1.011,0.82-1.832,1.832-1.832h5.903c0.73,0,1.392,0.435,1.682,1.105l19.139,44.245
					c0.246,0.567,0.188,1.22-0.151,1.735C238.065,302.997,237.491,303.306,236.875,303.306z"/>
			</g>
			<path style="fill:#FCFCFC;" d="M207.252,291.546c0,0.843-0.684,1.526-1.527,1.526l0,0c-0.843,0-1.526-0.684-1.526-1.526v-63.57
				c0-0.843,0.683-1.527,1.526-1.527l0,0c0.843,0,1.527,0.684,1.527,1.527V291.546z"/>
			<path style="fill:#FCFCFC;" d="M210.916,284.065c0,1.268-1.028,2.295-2.295,2.295l0,0c-1.267,0-2.295-1.027-2.295-2.295V236.32
				c0-1.268,1.028-2.294,2.295-2.294l0,0c1.267,0,2.295,1.027,2.295,2.294V284.065z"/>
			<path style="fill:#FCFCFC;" d="M211.832,301.322c0,0.759-0.616,1.374-1.374,1.374h-26.105c-0.759,0-1.374-0.615-1.374-1.374l0,0
				c0-0.759,0.615-1.374,1.374-1.374h26.105C211.216,299.948,211.832,300.564,211.832,301.322L211.832,301.322z"/>
		</g>
		<g>
			<path style="fill:#DFE7F4;" d="M309.425,301.913c0-0.74-0.6-1.34-1.34-1.34H273.29c-0.74,0-1.34,0.6-1.34,1.34l0,0
				c0,0.739,0.6,1.339,1.34,1.339h34.795C308.825,303.252,309.425,302.652,309.425,301.913L309.425,301.913z"/>
			<path style="fill:#FCFCFC;" d="M283.948,300.242c0,1.657,1.342,3,3,3h45.205c1.656,0,3-1.343,3-3v-37.064c0-1.657-1.344-3-3-3
				h-45.205c-1.658,0-3,1.343-3,3V300.242z"/>
			<path style="fill:#DFE7F4;" d="M306.466,281.71c0,1.703,1.381,3.084,3.084,3.084c1.705,0,3.086-1.381,3.086-3.084
				s-1.381-3.084-3.086-3.084C307.847,278.626,306.466,280.007,306.466,281.71z"/>
			<path style="opacity:0.2;fill:#DFE7F4;" d="M285.396,260.622l49.008,41.585c-0.551,0.63-1.35,1.035-2.25,1.035h-45.205
				c-1.658,0-3-1.343-3-3v-37.064C283.948,262.091,284.53,261.148,285.396,260.622z"/>
		</g>
		<g>
			<rect x="141.083" y="140.795" style="fill:#FCFCFC;" width="104.943" height="72.027"/>
			<g>
				<path style="fill:#F9CB7E;" d="M187.378,184.803c-0.321,0-0.645-0.029-0.96-0.087c-0.271-0.051-0.451-0.311-0.4-0.583
					c0.05-0.271,0.311-0.444,0.582-0.401c0.846,0.158,1.709,0.059,2.675-0.304c0.259-0.098,0.547,0.035,0.643,0.294
					c0.097,0.258-0.034,0.546-0.293,0.644C188.838,184.66,188.103,184.803,187.378,184.803z M183.849,183.41
					c-0.108,0-0.219-0.035-0.312-0.109c-0.777-0.619-1.485-1.349-2.165-2.232c-0.169-0.219-0.128-0.532,0.091-0.701
					c0.219-0.167,0.533-0.127,0.701,0.092c0.631,0.818,1.283,1.492,1.996,2.061c0.217,0.172,0.252,0.486,0.08,0.702
					C184.142,183.345,183.997,183.41,183.849,183.41z M192.084,182.972c-0.162,0-0.32-0.078-0.416-0.223
					c-0.154-0.229-0.092-0.54,0.137-0.693c0.564-0.377,1.127-0.783,1.691-1.191l0.747-0.538c0.226-0.159,0.536-0.107,0.697,0.117
					c0.16,0.225,0.107,0.537-0.117,0.697l-0.741,0.534c-0.573,0.415-1.145,0.829-1.72,1.213
					C192.276,182.945,192.179,182.972,192.084,182.972z M210.305,182.698c-0.803,0-1.619-0.202-2.495-0.616
					c-0.25-0.118-0.356-0.417-0.237-0.666c0.117-0.249,0.418-0.355,0.665-0.238c0.749,0.355,1.406,0.52,2.067,0.52
					c0.002,0,0.004,0,0.006,0c0.179,0,0.36-0.012,0.547-0.039c0.274-0.034,0.527,0.15,0.566,0.424
					c0.039,0.273-0.15,0.527-0.424,0.566C210.762,182.682,210.5,182.694,210.305,182.698z M213.667,181.494
					c-0.16,0-0.316-0.076-0.414-0.218c-0.156-0.229-0.098-0.539,0.131-0.695c0.17-0.116,0.344-0.242,0.521-0.381
					c0.578-0.459,1.161-0.959,1.729-1.485c0.203-0.189,0.519-0.177,0.707,0.026c0.188,0.202,0.176,0.518-0.027,0.706
					c-0.586,0.545-1.188,1.062-1.789,1.538c-0.197,0.154-0.389,0.294-0.576,0.422C213.862,181.465,213.763,181.494,213.667,181.494z
					 M205.458,180.578c-0.093,0-0.188-0.026-0.271-0.081c-0.73-0.476-1.591-1.013-2.54-1.376c-0.259-0.099-0.388-0.388-0.289-0.646
					c0.099-0.258,0.39-0.385,0.645-0.288c1.041,0.398,1.955,0.968,2.729,1.472c0.232,0.15,0.297,0.46,0.146,0.691
					C205.782,180.498,205.622,180.578,205.458,180.578z M197.061,179.62c-0.18,0-0.354-0.097-0.443-0.267
					c-0.129-0.244-0.035-0.547,0.209-0.676c1.084-0.571,2.07-0.895,3.015-0.986c0.278-0.018,0.52,0.175,0.546,0.45
					c0.027,0.275-0.174,0.519-0.449,0.546c-0.813,0.078-1.678,0.364-2.645,0.875C197.219,179.601,197.139,179.62,197.061,179.62z
					 M180.139,178.747c-0.176,0-0.346-0.093-0.438-0.256c-0.52-0.932-0.988-1.888-1.379-2.699c-0.12-0.249-0.016-0.548,0.233-0.667
					c0.249-0.124,0.548-0.016,0.667,0.233c0.385,0.799,0.845,1.737,1.352,2.645c0.135,0.241,0.049,0.546-0.193,0.681
					C180.305,178.726,180.221,178.747,180.139,178.747z M218.083,177.451c-0.12,0-0.241-0.043-0.338-0.132
					c-0.204-0.186-0.218-0.502-0.03-0.706c0.626-0.684,1.26-1.42,1.939-2.25c0.175-0.214,0.49-0.246,0.703-0.07
					c0.215,0.175,0.246,0.489,0.071,0.703c-0.691,0.846-1.338,1.596-1.978,2.293C218.354,177.396,218.219,177.451,218.083,177.451z
					 M177.473,173.37c-0.184,0-0.361-0.102-0.448-0.278c-0.521-1.048-0.968-1.874-1.409-2.598c-0.145-0.236-0.07-0.544,0.166-0.688
					c0.234-0.144,0.543-0.069,0.688,0.166c0.457,0.75,0.918,1.6,1.451,2.676c0.123,0.247,0.021,0.547-0.226,0.67
					C177.624,173.353,177.547,173.37,177.473,173.37z M221.897,172.822c-0.105,0-0.213-0.033-0.303-0.102
					c-0.221-0.168-0.262-0.482-0.095-0.701c0.573-0.75,1.14-1.509,1.708-2.268l0.094-0.126c0.164-0.22,0.479-0.267,0.699-0.1
					c0.221,0.165,0.267,0.479,0.102,0.7l-0.094,0.125c-0.57,0.762-1.139,1.523-1.714,2.276
					C222.196,172.754,222.047,172.822,221.897,172.822z M155.667,170.476c-0.166,0-0.329-0.083-0.424-0.233
					c-0.148-0.233-0.077-0.543,0.157-0.689c0.49-0.309,1.004-0.645,1.538-0.996l0.974-0.636c0.23-0.148,0.541-0.084,0.691,0.148
					c0.15,0.231,0.084,0.541-0.148,0.691l-0.969,0.632c-0.539,0.354-1.059,0.694-1.553,1.006
					C155.85,170.452,155.758,170.476,155.667,170.476z M174.28,168.311c-0.139,0-0.275-0.057-0.375-0.168
					c-0.671-0.757-1.375-1.369-2.151-1.871c-0.232-0.15-0.298-0.46-0.148-0.691c0.149-0.232,0.46-0.297,0.691-0.148
					c0.854,0.553,1.624,1.222,2.356,2.047c0.184,0.207,0.165,0.522-0.041,0.706C174.516,168.269,174.397,168.311,174.28,168.311z
					 M225.506,168.03c-0.105,0-0.213-0.033-0.304-0.104c-0.22-0.168-0.261-0.481-0.093-0.7c0.611-0.799,1.232-1.591,1.871-2.367
					c0.175-0.213,0.491-0.245,0.704-0.069c0.214,0.176,0.244,0.491,0.069,0.704c-0.631,0.769-1.246,1.551-1.85,2.34
					C225.805,167.962,225.657,168.03,225.506,168.03z M160.743,167.273c-0.174,0-0.344-0.091-0.436-0.254
					c-0.137-0.24-0.052-0.545,0.189-0.681c0.989-0.561,1.888-1.003,2.748-1.354c0.255-0.104,0.548,0.018,0.651,0.274
					c0.104,0.256-0.019,0.548-0.274,0.651c-0.82,0.334-1.681,0.759-2.632,1.297C160.911,167.253,160.827,167.273,160.743,167.273z
					 M169.29,165.169c-0.034,0-0.069-0.004-0.105-0.011c-0.867-0.187-1.807-0.205-2.799-0.049c-0.271,0.045-0.529-0.144-0.571-0.417
					c-0.042-0.273,0.144-0.528,0.417-0.571c1.113-0.175,2.177-0.151,3.164,0.059c0.27,0.059,0.441,0.324,0.383,0.594
					C169.728,165.009,169.52,165.169,169.29,165.169z M229.332,163.411c-0.121,0-0.243-0.044-0.339-0.132
					c-0.203-0.188-0.216-0.504-0.029-0.707c0.727-0.789,1.427-1.493,2.141-2.155c0.201-0.188,0.518-0.176,0.706,0.027
					c0.188,0.202,0.176,0.519-0.026,0.707c-0.694,0.643-1.376,1.329-2.084,2.099C229.6,163.356,229.466,163.411,229.332,163.411z"/>
			</g>
			<g>
				<path style="fill:#F2595E;" d="M155.022,186.644c7.696,2.506,12.941,0.879,19.553-3.497c3.426-2.269,6.694-4.593,10.898-5.058
					c3.934-0.436,7.569,0.449,11.56-0.431c6.872-1.517,9.261-6.828,14.865-10.186c5.179-3.102,11.606,0.925,15.269-5.234
					c0.396-0.669-0.609-1.24-1.033-0.604c-3.397,5.12-9.861,2.706-14.803,4.867c-1.803,0.787-3.289,2.503-4.6,3.895
					c-2.996,3.181-5.707,4.941-9.997,6.177c-6.177,1.778-11.88-0.599-17.744,2.558c-2.682,1.443-5.163,3.344-7.718,4.997
					c-5.23,3.386-10.234,3.338-16.174,2.244C154.921,186.34,154.848,186.587,155.022,186.644L155.022,186.644z"/>
			</g>
			<g>
				<polygon style="fill:#5C53D4;" points="226.249,205.032 154.37,205.032 154.37,154.873 156.37,154.873 156.37,203.032 
					226.249,203.032 				"/>
			</g>
		</g>
		<g>
			<rect x="128.567" y="80.364" style="fill:#FCFCFC;" width="85.848" height="52.631"/>
			<g>
				<polygon style="fill:#5C53D4;" points="202,126.733 140.982,126.733 140.982,84.153 142.68,84.153 142.68,125.036 202,125.036 
									"/>
			</g>
			<rect x="152.226" y="100.989" style="fill:#F9CB7E;" width="8.646" height="24.047"/>
			<rect x="163.905" y="91.889" style="fill:#F2595E;" width="8.646" height="33.147"/>
			<rect x="175.583" y="110.545" style="fill:#5142B7;" width="8.646" height="14.491"/>
			<rect x="187.262" y="104.478" style="fill:#D2DDFD;" width="8.646" height="20.558"/>
		</g>
		<g>
			<path style="fill:#ACB7ED;" d="M57.34,387.112c0,0,19.103-35.338-18.285-63.993C39.056,323.119,28.113,363.177,57.34,387.112z"/>
			<path style="fill:#ACB7ED;" d="M59.378,394.953c0,0-8.839-24.661,17.548-38.96C76.926,355.993,82.906,384.259,59.378,394.953z"/>
			<path style="fill:#ACB7ED;" d="M60.892,345.961c0,0,18.943-10.466,13.914-38.785c0,0-19.115,12.476-14.045,39.151"/>
			<path style="fill:#8091D8;" d="M56.538,380.347c0,0,28.723-29.117,0-69.54C56.538,310.807,34.828,346.422,56.538,380.347z"/>
			<path style="opacity:0.4;fill:#8091D8;" d="M56.538,380.347v-69.54C56.538,310.807,34.828,346.422,56.538,380.347z"/>
			<path style="fill:#8091D8;" d="M59.365,396.086c0,0,5.718-27.099-25.435-39.626C33.93,356.46,34.586,384.695,59.365,396.086z"/>
			<path style="opacity:0.4;fill:#8091D8;" d="M59.365,396.086L33.93,356.46C33.93,356.46,34.586,384.695,59.365,396.086z"/>
			<polygon style="fill:#5D53D6;" points="73.53,424.057 48.15,424.057 46.022,396.37 75.659,396.37 			"/>
			<polygon style="opacity:0.5;fill:#5D53D6;" points="46.022,396.37 48.15,424.057 55.767,424.057 52.531,396.37 			"/>
			<rect x="44.462" y="392.08" style="fill:#5D53D6;" width="32.886" height="8.059"/>
			<polygon style="opacity:0.5;fill:#5D53D6;" points="44.462,392.08 44.462,400.139 54.857,400.139 52.505,392.08 			"/>
		</g>
		<g>
			<path style="fill:#1C1855;" d="M420.122,310.237c0,1.657-1.342,3-3,3h-292.35c-1.657,0-3-1.343-3-3v-4.44c0-1.657,1.343-3,3-3
				h292.35c1.658,0,3,1.343,3,3V310.237z"/>
			<g>
				<g>
					<path style="fill:#1C1855;" d="M403.831,415.738c-0.904,0-1.779-0.494-2.223-1.354l-52.129-100.921l-52.131,100.921
						c-0.633,1.226-2.141,1.709-3.367,1.073c-1.227-0.633-1.707-2.142-1.074-3.368l54.352-105.221
						c0.428-0.831,1.285-1.353,2.221-1.353c0.936,0,1.791,0.521,2.221,1.353l54.35,105.221c0.635,1.227,0.154,2.735-1.072,3.368
						C404.61,415.648,404.218,415.738,403.831,415.738z"/>
				</g>
				<g>
					<path style="fill:#1C1855;" d="M246.769,415.738c-0.905,0-1.779-0.494-2.223-1.354l-52.13-100.921l-52.13,100.921
						c-0.633,1.226-2.142,1.709-3.368,1.073c-1.227-0.633-1.707-2.142-1.073-3.368l54.351-105.221
						c0.429-0.831,1.285-1.353,2.221-1.353c0.936,0,1.792,0.521,2.221,1.353l54.351,105.221c0.634,1.227,0.153,2.735-1.073,3.368
						C247.547,415.648,247.155,415.738,246.769,415.738z"/>
				</g>
			</g>
		</g>
		<g>
			<g>
				<g>
					<path style="fill:#F9A88C;" d="M135.176,397.97c0,0-0.927,10.126-1.427,13.251c0,0,5.177,1.317,15.802-2.001
						c0,0-5.432-2.767-6.625-5.02c-0.563-1.063-0.563-8.355-0.563-8.355L135.176,397.97z"/>
					<path style="fill:#F3595B;" d="M134.167,407.972c-0.483-0.194-1.675,2.57-1.369,6.238c0,0,14.369,0.476,24.05-0.34
						c0,0-0.475-2.785-1.223-3.261c-0.747-0.476-11.456-6.386-12.046-6.624c-0.59-0.238,0.734,2.819,0.734,2.819
						S141.277,410.837,134.167,407.972z"/>
					<path style="fill:#FCFCFC;" d="M152.744,408.979c0,0-0.143,0.951-0.006,4.619c0,0-16.2,0.883-19.989-0.408
						c0,0-0.559,0.95,0,2.48c0,0,15.606,0.475,24.71-1.087C157.459,414.583,157.459,409.318,152.744,408.979z"/>
					<path style="fill:#FFCD74;" d="M131.357,357.806c0,0,0.923,29.948,3.001,42.107c0,0,2.494,1.559,8.937,0l1.685-40.321
						L131.357,357.806z"/>
					<path style="opacity:0.5;fill:#E5AC5A;" d="M131.357,357.806c0,0,0.316,10.232,0.993,21.163
						c3.829-2.322,7.93-4.175,12.072-6.005l0.559-13.372L131.357,357.806z"/>
				</g>
				<g>
					<path style="fill:#F9A88C;" d="M164.012,405.306c0,0-0.927,10.126-1.427,13.251c0,0,5.177,1.317,15.802-2.001
						c0,0-5.432-2.767-6.625-5.021c-0.563-1.063-0.563-8.354-0.563-8.354L164.012,405.306z"/>
					<path style="fill:#F3595B;" d="M163.003,415.308c-0.483-0.194-1.675,2.57-1.369,6.238c0,0,14.369,0.476,24.05-0.34
						c0,0-0.475-2.785-1.223-3.261c-0.748-0.476-11.456-6.386-12.046-6.624c-0.59-0.238,0.734,2.819,0.734,2.819
						S170.113,418.173,163.003,415.308z"/>
					<path style="fill:#FCFCFC;" d="M181.58,416.315c0,0-0.143,0.951-0.006,4.619c0,0-16.2,0.883-19.989-0.408
						c0,0-0.559,0.95,0,2.479c0,0,15.607,0.476,24.711-1.087C186.296,421.919,186.296,416.654,181.58,416.315z"/>
					<path style="fill:#FFCD74;" d="M105.887,326.806c0,0-4.5,11.75,0,20s23.856,11.27,50.231,9.52c0,0,0.519,12.48,2.519,21.73
						s4.375,28.5,4.375,28.5s1.875,2.125,9.125,0c0,0,0.625-40.625,0-49.875s-33.25-29.875-33.25-29.875H105.887z"/>
					<path style="opacity:0.5;fill:#E5AC5A;" d="M159.894,356.132c-1.21,0.161-2.474,0.402-3.754,0.652
						c0.114,2.314,0.723,13.061,2.498,21.271c2,9.25,4.375,28.5,4.375,28.5s0.389,0.432,1.476,0.711
						c-0.14-0.962-0.254-1.928-0.323-2.896C162.406,388.291,161.401,372.212,159.894,356.132z"/>
					<path style="opacity:0.5;fill:#E5AC5A;" d="M124.72,339.047c6.232-3.561,11.326-6.624,16.002-11.054
						c-1.149-0.753-1.835-1.188-1.835-1.188h-33c0,0-4.5,11.75,0,20c0.897,1.646,2.395,3.079,4.412,4.311
						C114.01,346.074,119.024,342.302,124.72,339.047z"/>
				</g>
				<path style="fill:#F9A88C;" d="M145.949,254.662c0,0-6.796,12.572-7.331,12.66c-0.535,0.088-6.129-0.174-7.261-4.802
					l6.464-10.391L145.949,254.662z"/>
				<g>
					<path style="fill:#FCFCFC;" d="M132.179,261.198c0,0-12.87,5.338-20.378,20.706c-7.509,15.368-8.247,45.985-8.247,45.985
						s18.833,9.334,36.667,0c0,0,3-37.501,3.833-48.334C144.887,268.723,143.271,262.616,132.179,261.198z"/>
					<path style="opacity:0.1;fill:#5D53D6;" d="M136.779,266.69c-4.271,1.508-6.784,6.783-7.788,10.552
						c-0.739,28.275,6.587,42.312,11.951,41.623c0.942-11.805,2.54-31.86,3.112-39.309c0.349-4.536,0.255-8.231-0.771-11.113
						C141.485,266.83,139.333,265.838,136.779,266.69z"/>
				</g>
				<g>
					<path style="fill:#F9A88C;" d="M177.478,300.218c0,0,9.844-4.456,12.037-4.277c2.194,0.179,6.7,4.634,5.989,4.753
						c-0.712,0.119-4.447-2.14-4.803-2.02c-0.355,0.119-5.514,5.763-12.155,4.574L177.478,300.218z"/>
					<path style="fill:#FCFCFC;" d="M131.375,270.324c-3.509,10.146,4.271,41.03,8.428,42.785
						c4.157,1.754,41.132-9.038,41.132-9.038s0.86-4.212-2.236-5.246c0,0-28.264,3.14-30.155,1.933
						c-1.892-1.206-2.004-26.053-5.221-32.083C139.904,262.265,133.118,265.286,131.375,270.324z"/>
				</g>
				<g>
					<path style="fill:#F9A88C;" d="M162.619,243.23c-0.349,8.415-7.632,14.947-16.266,14.589
						c-8.634-0.358-15.35-7.471-15.001-15.887c0.35-8.416,7.632-14.947,16.266-14.589
						C156.252,227.702,162.968,234.815,162.619,243.23z"/>
					<g>
						<path style="fill:#1C1855;" d="M111.888,263.743c2.262,3.537,4.89,7.072,10.391,7.422c3.998,0.254,7.771-0.35,10.74-2.794
							c6.112-4.89,8.295-12.138,9.168-19.559c0.611-5.064,1.921-10.303,6.112-13.621c3.667-2.881,6.898-1.31,10.827,0
							c5.414,1.746,9.701-2.33,7.858-7.771c-1.834-5.414-13.883-13.359-21.218-7.422c0,0-8.382-3.755-14.058,2.619
							c-5.676,6.374-4.104,20.082-8.033,22.527C119.747,247.59,104.292,251.868,111.888,263.743z"/>
						<g>
							<path style="fill:#5D53D6;" d="M147.976,221.095c-0.3,0.111-0.17,0.594,0.133,0.482c5.786-2.137,13.904-0.047,15.55,6.549
								c0.078,0.313,0.561,0.18,0.482-0.133C162.434,221.155,154.023,218.861,147.976,221.095z"/>
							<path style="fill:#5D53D6;" d="M150.133,224.139c-0.316,0.063-0.182,0.544,0.133,0.482
								c4.938-0.977,10.635,1.718,11.364,7.057c0.044,0.318,0.525,0.182,0.482-0.133
								C161.345,225.934,155.312,223.115,150.133,224.139z"/>
							<path style="fill:#5D53D6;" d="M151.341,228.19c-0.319,0.023-0.322,0.523,0,0.5c2.483-0.183,4.642,1.073,4.951,3.683
								c0.038,0.316,0.538,0.32,0.5,0C156.452,229.505,154.131,227.985,151.341,228.19z"/>
							<path style="fill:#5D53D6;" d="M148.229,227.945c-6.882,0.96-8.042,8.31-8.695,14.051c-0.588,5.17-1.605,10.046-4.089,14.672
								c-2.372,4.417-7.524,10.558-13.029,10.216c-0.322-0.02-0.32,0.48,0,0.5c4.253,0.264,7.767-3.115,10.408-6.077
								c2.891-3.24,4.706-7.311,5.876-11.451c1.924-6.811,0.15-20.102,9.662-21.428
								C148.681,228.383,148.544,227.901,148.229,227.945z"/>
							<path style="fill:#5D53D6;" d="M134.564,244.967c1.585-7.161,1.37-19.96,12.083-18.688c0.32,0.038,0.316-0.462,0-0.5
								c-7.383-0.877-10.516,5.707-11.454,12.008c-0.657,4.414-1.127,8.838-3.013,12.941c-2.442,5.314-7.625,8.141-13.129,9.313
								c-0.315,0.067-0.182,0.549,0.133,0.483c4.068-0.867,7.76-2.501,10.699-5.507
								C132.523,252.318,133.768,248.566,134.564,244.967z"/>
							<path style="fill:#5D53D6;" d="M130.439,240.031c0.811-4.05,1.41-8.09,3.566-11.698c2.556-4.275,7.086-5.684,11.814-4.854
								c0.315,0.055,0.45-0.427,0.133-0.482c-7.415-1.302-12.269,2.953-14.451,9.79c-1.26,3.945-1.476,8.14-2.822,12.068
								c-2.054,5.994-7.563,8.405-13.434,9.351c-0.318,0.052-0.183,0.533,0.133,0.482c4.229-0.682,8.383-1.991,11.314-5.271
								C128.976,246.863,129.787,243.289,130.439,240.031z"/>
						</g>
					</g>
					<path style="fill:#F9A88C;" d="M145.949,246.157c0,2.252-1.768,4.078-3.949,4.078c-2.181,0-3.948-1.826-3.948-4.078
						c0-2.253,1.767-4.079,3.948-4.079C144.181,242.078,145.949,243.904,145.949,246.157z"/>
					<path style="fill:#D17461;" d="M143.229,244.437c-1.45-0.703-2.806,0.609-3.377,1.822c-0.137,0.29,0.294,0.544,0.432,0.252
						c0.476-1.012,1.381-2.025,2.611-1.671c0.759,0.218,1.099,0.801,1.173,1.461c-0.879-0.246-1.854-0.059-2.124,0.948
						c-0.294,1.1,0.739,1.661,1.662,1.361c0.105,0.102,0.297,0.127,0.401-0.032C144.903,247.209,144.871,245.232,143.229,244.437z
						 M143.709,248.079c-0.035-0.004-0.073-0.002-0.116,0.016c-0.765,0.315-1.495-0.132-1.062-1.003
						c0.275-0.552,1.038-0.44,1.544-0.268C144.04,247.269,143.903,247.707,143.709,248.079z"/>
				</g>
			</g>
			<g>
				<path style="fill:#1C1855;" d="M128.252,419.135c0,1.407-1.142,2.549-2.549,2.549l0,0c-1.408,0-2.55-1.142-2.55-2.549v-53.362
					c0-1.408,1.142-2.55,2.55-2.55l0,0c1.408,0,2.549,1.142,2.549,2.55V419.135z"/>
				<path style="fill:#1C1855;" d="M141.619,422.019c0,1.77-1.435,3.204-3.204,3.204H112.99c-1.769,0-3.204-1.435-3.204-3.204l0,0
					c0-1.769,1.435-3.204,3.204-3.204h25.425C140.185,418.815,141.619,420.249,141.619,422.019L141.619,422.019z"/>
				<path style="fill:#5D53D6;" d="M88.554,292.889c-7.602,7.602,1.248,67.641,17.458,71.32c16.209,3.68,48.679,3.438,52.273-0.367
					c4.301-4.554,1.907-8.956-4.674-9.384c-5.517-0.358-42.538,4.68-49.48-13.118C97.188,323.542,99.554,281.889,88.554,292.889z"/>
				<path style="opacity:0.5;fill:#5D53D6;" d="M100.6,347.338c-10.99-15.386-9.673-37.502-8.499-56.255
					c-1.003-0.123-2.17,0.429-3.548,1.806c-7.602,7.602,1.248,67.641,17.458,71.32c16.209,3.68,48.679,3.438,52.273-0.367
					c1.751-1.854,2.376-3.679,2.077-5.225c-6.186,1.101-12.371,2.009-18.557,2.539C126.981,362.161,109.896,360.653,100.6,347.338z"
					/>
			</g>
		</g>
		<g>
			<g>
				<g>
					<path style="fill:#F9A88C;" d="M388.587,245.128c0.367,8.662,7.182,15.418,15.221,15.093
						c8.037-0.326,14.256-7.612,13.887-16.273c-0.367-8.662-7.182-15.419-15.221-15.093
						C394.437,229.18,388.218,236.466,388.587,245.128z"/>
					<path style="fill:#F9A88C;" d="M405.913,254.662c0,0,6.797,12.572,7.332,12.66c0.535,0.088,6.129-0.174,7.262-4.802
						l-6.465-10.391L405.913,254.662z"/>
					<g>
						<path style="fill:#1C1855;" d="M426.253,227.304c-1.809-2.602-4.459-2.688-6.832-1.407c1.662-5.46-5.064-7.246-8.277-2.977
							c-1.385-9.125-13.9-3.068-14.348,2.309c-2.844-0.405-6.047-0.174-7.785,2.454c-1.51,2.28-2.729,6.3-0.621,8.66
							c3.512,3.933,8.875,0.828,12.631-2.045c-0.053,2.39,0.566,4.588,2.826,6.348c0.9,0.7,2.094,0.801,3.176,0.887
							c2.355,0.184,3.838-1.911,2.057,1.149c-1.17,2.01-2.246,5.647,0.273,7.248c1.711,1.087,3.109,2.325,4.521,1.632
							c1.022,2.66,2.742,3.9,5.463,3.736c2.057-0.121,3.598-2.44,4.166-4.174c0.77-2.353-0.621-5.039-2.031-7.017
							c2.338-0.383,4.336-1.503,5.193-3.905c0.727-2.04-0.313-3.636-1.855-4.698C426.825,233.081,428.116,229.98,426.253,227.304z"
							/>
						<g>
							<path style="fill:#5D53D6;" d="M397.132,226.99c-3.139,0.195-6.807,1.098-6.898,4.861c-0.1,4.104,3.895,4.07,6.795,3.058
								c0.303-0.105,0.172-0.589-0.133-0.482c-2.73,0.953-5.975,1.148-6.162-2.575c-0.174-3.456,3.764-4.197,6.398-4.361
								C397.452,227.47,397.454,226.97,397.132,226.99z"/>
							<path style="fill:#5D53D6;" d="M407.37,229.938c0.305-0.1,0.174-0.583-0.133-0.482c-2.322,0.762-4.326,0.038-4.973-2.467
								c-0.605-2.344,1.846-3.674,3.676-4.25c0.307-0.097,0.176-0.58-0.133-0.482c-1.973,0.621-4.471,2.019-4.084,4.485
								C402.19,229.727,404.644,230.832,407.37,229.938z"/>
							<path style="fill:#5D53D6;" d="M415.882,246.083c-3.842-1.167-4.863-5.296-2.707-8.546c0.145-0.217-0.133-0.458-0.342-0.342
								c-2.328,1.294-4.887,2.131-7.186,0.113c-1.615-1.417-0.479-3.923,0.271-5.371c0.148-0.286-0.283-0.538-0.432-0.252
								c-0.912,1.758-1.553,3.577-0.611,5.443c1.059,2.097,3.959,2.115,5.861,1.602c0.49-0.132,1.154-0.474,1.607-0.691
								c0.168-0.081-0.225,0.183-0.355,0.613c-0.379,1.246-0.603,2.614-0.299,3.91c0.516,2.198,1.943,3.359,4.059,4.003
								C416.06,246.659,416.19,246.176,415.882,246.083z"/>
							<path style="fill:#5D53D6;" d="M423.517,239.115c-0.272,1.896-3.141,0.981-4.221,0.421c-1.824-0.945-1.719-3.147-1.353-4.859
								c0.068-0.315-0.414-0.448-0.482-0.133c-0.502,2.355-0.26,4.656,2.18,5.705c1.348,0.58,4.068,1.02,4.359-1.001
								C424.044,238.933,423.563,238.797,423.517,239.115z"/>
							<path style="fill:#5D53D6;" d="M419.634,231.585c0.91,0.917,2.283,1.37,3.506,0.868c0.293-0.121,0.164-0.605-0.133-0.482
								c-1.109,0.456-2.17,0.025-3.02-0.739c-0.926-0.835-0.539-1.89-0.215-2.896c0.098-0.308-0.385-0.439-0.482-0.133
								c-0.135,0.419-0.25,0.819-0.313,1.207c-1.69,0.641-3.566,0.983-4.943-0.471c-1.887-1.994-0.807-4.425,1.223-5.652
								c0.275-0.167,0.023-0.599-0.252-0.432c-2.08,1.258-2.996,3.118-1.975,5.427c1.098,2.484,3.697,2.458,5.899,1.675
								C418.933,230.524,419.118,231.063,419.634,231.585z"/>
						</g>
					</g>
					<g>
						<path style="fill:#F9A88C;" d="M409.476,247.27c-0.551,1.943,0.576,3.964,2.52,4.516c1.943,0.551,3.965-0.576,4.516-2.52
							c0.551-1.943-0.576-3.964-2.52-4.516C412.05,244.2,410.026,245.328,409.476,247.27z"/>
						<path style="fill:#D17461;" d="M412.147,250.917c0.135,0.136,0.316,0.069,0.398-0.052c0.965,0.102,1.859-0.661,1.344-1.675
							c-0.473-0.93-1.465-0.911-2.273-0.488c-0.065-0.661,0.146-1.302,0.844-1.673c1.129-0.601,2.227,0.203,2.902,1.094
							c0.193,0.257,0.563-0.082,0.369-0.336c-0.811-1.068-2.41-2.071-3.682-1.083C410.608,247.823,410.987,249.765,412.147,250.917z
							 M411.716,249.215c0.461-0.273,1.184-0.541,1.568-0.058c0.604,0.761-0.017,1.35-0.834,1.201
							c-0.045-0.009-0.082-0.003-0.115,0.01C412.069,250.043,411.843,249.642,411.716,249.215z"/>
					</g>
				</g>
				<g>
					<g>
						<path style="fill:#F9A88C;" d="M416.687,397.97c0,0,0.928,10.126,1.428,13.251c0,0-5.178,1.317-15.803-2.001
							c0,0,5.432-2.767,6.625-5.02c0.563-1.063,0.563-8.355,0.563-8.355L416.687,397.97z"/>
						<path style="fill:#FFD183;" d="M417.696,407.972c0.483-0.194,1.674,2.57,1.369,6.238c0,0-14.369,0.476-24.051-0.34
							c0,0,0.475-2.785,1.223-3.261c0.748-0.476,11.457-6.386,12.047-6.624c0.59-0.238-0.734,2.819-0.734,2.819
							S410.585,410.837,417.696,407.972z"/>
						<path style="fill:#FCFCFC;" d="M399.118,408.979c0,0,0.143,0.951,0.008,4.619c0,0,16.199,0.883,19.988-0.408
							c0,0,0.559,0.95,0,2.48c0,0-15.607,0.475-24.711-1.087C394.403,414.583,394.403,409.318,399.118,408.979z"/>
						<path style="fill:#F3595B;" d="M420.507,357.806c0,0-0.924,29.948-3.002,42.107c0,0-2.494,1.559-8.937,0l-1.684-40.321
							L420.507,357.806z"/>
						<path style="opacity:0.5;fill:#C64A50;" d="M406.884,359.592l0.557,13.321c4.096,1.362,8.443,2.595,12.16,4.622
							c0.617-10.375,0.906-19.729,0.906-19.729L406.884,359.592z"/>
					</g>
					<g>
						<g>
							<path style="fill:#F9A88C;" d="M387.851,405.306c0,0,0.928,10.126,1.428,13.251c0,0-5.178,1.317-15.803-2.001
								c0,0,5.432-2.767,6.625-5.021c0.563-1.063,0.563-8.354,0.563-8.354L387.851,405.306z"/>
							<path style="fill:#FFD183;" d="M388.86,415.308c0.482-0.194,1.674,2.57,1.369,6.238c0,0-14.369,0.476-24.051-0.34
								c0,0,0.475-2.785,1.223-3.261c0.748-0.476,11.457-6.386,12.047-6.624c0.59-0.238-0.734,2.819-0.734,2.819
								S381.749,418.173,388.86,415.308z"/>
							<path style="fill:#FCFCFC;" d="M370.282,416.315c0,0,0.143,0.951,0.008,4.619c0,0,16.199,0.883,19.988-0.408
								c0,0,0.559,0.95,0,2.479c0,0-15.608,0.476-24.711-1.087C365.567,421.919,365.567,416.654,370.282,416.315z"/>
						</g>
						<g>
							<path style="fill:#F3595B;" d="M445.976,326.806c0,0,4.5,11.75,0,20s-23.846,11.111-50.221,9.361
								c0,0-0.529,12.639-2.529,21.889s-4.375,28.5-4.375,28.5s-1.875,2.125-9.125,0c0,0-0.625-40.625,0-49.875
								s33.25-29.875,33.25-29.875H445.976z"/>
							<path style="opacity:0.5;fill:#C64A50;" d="M392.917,354.574c-4.48,2.301-3.996,4.725-4.602,9.085
								c-1.09,7.993-1.574,15.987-2.666,23.859c-0.967,6.608-2.313,13.109-3.779,19.574c5.475,1.147,6.98-0.537,6.98-0.537
								s2.375-19.25,4.375-28.5s2.529-21.889,2.529-21.889c13.111,0.87,24.484,0.6,33.162-0.906
								C422.589,356.097,398.126,351.909,392.917,354.574z"/>
							<path style="opacity:0.5;fill:#C64A50;" d="M431.552,338.104c4.977,2.853,9.637,5.888,14.102,9.229
								c0.111-0.175,0.225-0.348,0.322-0.527c4.5-8.25,0-20,0-20h-33c0,0-0.832,0.526-2.225,1.443c1.627,0.48,3.24,1.024,4.815,1.74
								C421.015,332.533,426.345,335.197,431.552,338.104z"/>
						</g>
					</g>
				</g>
				<g>
					<g>
						<path style="fill:#FCFCFC;" d="M379.491,282.879c0.234,1.391-0.656,2.723-1.99,2.977l-15.508,2.94
							c-1.334,0.254-2.607-0.67-2.842-2.06l-4.408-26.055c-0.236-1.391,0.654-2.723,1.988-2.975l15.508-2.942
							c1.336-0.253,2.607,0.669,2.842,2.061L379.491,282.879z"/>
						<path style="fill:#DFE7F4;" d="M377.716,279.531c0.236,1.389-0.654,2.721-1.99,2.976l-13.166,2.496
							c-1.334,0.252-2.607-0.67-2.842-2.06l-3.574-21.12c-0.234-1.39,0.656-2.722,1.99-2.976l13.168-2.496
							c1.334-0.253,2.605,0.67,2.842,2.059L377.716,279.531z"/>
						<path style="fill:#DFE7F4;" d="M370.263,285.21c0.082,0.487-0.229,0.953-0.697,1.042c-0.467,0.09-0.912-0.232-0.996-0.719
							c-0.082-0.489,0.23-0.954,0.697-1.044C369.735,284.4,370.181,284.724,370.263,285.21z"/>
					</g>
					<path style="fill:#F9A88C;" d="M374.222,267.705c0,0,4.121-2.422,4.98-0.705c0.857,1.717,0.709,6.33,0.709,6.33l36.676,9.31
						l-3.16,11.892l-34.803-17.195c0,0-1.07-7.037-1.398-7.88c-0.082-0.209-1.832,0.236-2.689,0.356
						C372.788,270.054,372.212,268.66,374.222,267.705z"/>
					<g>
						<path style="fill:#FFD183;" d="M419.685,261.198c0,0,12.869,5.338,20.377,20.706c7.51,15.368,8.248,45.985,8.248,45.985
							s-18.834,9.334-36.668,0c0,0-3-37.501-3.832-48.334C406.976,268.723,408.593,262.616,419.685,261.198z"/>
						<path style="opacity:0.5;fill:#E5AC5A;" d="M420.165,292.927c2.06-8.114,1.697-16.472-0.969-24.344
							c-3.881,4.852-7.633,9.673-11.094,14.74c0.578,7.404,1.547,19.595,2.326,29.36c0.338-0.611,0.678-1.222,1.017-1.832
							C414.595,305.038,418.349,299.225,420.165,292.927z"/>
					</g>
					<g>
						<path style="fill:#F9A88C;" d="M403.769,285.999c0,0-5.004,11.387-6.838,11.697c-1.834,0.311-30.518-10.362-31.52-11.697
							c-1-1.334-0.666-9.006-1.5-9.172c-0.834-0.167-1.002,6.504-1.668,6.837c-0.434,0.218-2.742-1.626-3.813-3.754
							c-0.299-0.595-0.916-2.841-0.916-2.841s-2.426,1.104-1.438,3.018c0,0,0.402,4.759,1.736,7.196
							c1.336,2.438,7.031,3.427,7.031,3.427s27.514,17.897,34.475,18.802c5.803,0.755,16.25-20.313,16.25-20.313L403.769,285.999z"
							/>
						<path style="fill:#FFD183;" d="M399.366,290.205c0,0,6.029,5.75,17.258,6.374c0,0,11.342-19.755,1.664-30.46
							C412.198,259.381,404.132,273.278,399.366,290.205z"/>
					</g>
				</g>
			</g>
			<g>
				<path style="fill:#1C1855;" d="M423.61,419.135c0,1.407,1.143,2.549,2.551,2.549l0,0c1.408,0,2.549-1.142,2.549-2.549v-53.362
					c0-1.408-1.141-2.55-2.549-2.55l0,0c-1.408,0-2.551,1.142-2.551,2.55V419.135z"/>
				<path style="fill:#1C1855;" d="M410.243,422.019c0,1.77,1.436,3.204,3.205,3.204h25.426c1.768,0,3.203-1.435,3.203-3.204l0,0
					c0-1.769-1.435-3.204-3.203-3.204h-25.426C411.679,418.815,410.243,420.249,410.243,422.019L410.243,422.019z"/>
				<path style="fill:#5D53D6;" d="M463.31,292.889c7.602,7.602-1.248,67.641-17.457,71.32c-16.211,3.68-48.68,3.438-52.273-0.367
					c-4.301-4.554-1.908-8.956,4.674-9.384c5.518-0.358,42.537,4.68,49.48-13.118C454.675,323.542,452.31,281.889,463.31,292.889z"
					/>
				<path style="opacity:0.5;fill:#5D53D6;" d="M463.31,292.889c-1.018-1.018-1.92-1.582-2.727-1.759
					c-0.416,10.528-0.762,21.058-2.105,31.587c-1.006,7.537-2.262,15.577-6.281,22.36c-7.035,12.31-22.611,16.582-35.928,17.336
					c-8.217,0.391-16.434-0.591-24.648-1.755c0.297,1.019,0.932,2.096,1.959,3.184c3.594,3.805,36.063,4.047,52.273,0.367
					C462.062,360.529,470.911,300.49,463.31,292.889z"/>
			</g>
		</g>
	</g>
</g>
</svg>
